<?xml version="1.0" encoding="utf-8"?>
<!-- Generator: Adobe Illustrator 18.1.1, SVG Export Plug-In . SVG Version: 6.00 Build 0)  -->
<!DOCTYPE svg PUBLIC "-//W3C//DTD SVG 1.1//EN" "http://www.w3.org/Graphics/SVG/1.1/DTD/svg11.dtd">
<svg version="1.1" id="Layer_1" xmlns="http://www.w3.org/2000/svg" xmlns:xlink="http://www.w3.org/1999/xlink" x="0px" y="0px"
	 width="240px" height="80px" viewBox="0 0 240 80" enable-background="new 0 0 240 80" xml:space="preserve">
<g>
	<g>
		<g>
			<g>
				<path fill="#FFFFFF" d="M218.1,29.6c0,3.1-1.2,6-3.3,8.3l-0.5,0.5c-1,1-2.2,1.9-3.5,2.4c-0.2,0.3-0.3,0.6-0.5,1c0,0,0,0,0,0
					c1,1.2,1.8,2.6,2.3,4.1c0.1,0.2,0.1,0.5,0.2,0.7c0.2,0.8,0.3,1.7,0.3,2.6c0,0.4,0,0.8-0.1,1.2l0,0.1c-0.1,1-0.3,2-0.7,3
					c-0.2,0.5-0.4,1.1-0.7,1.7c-1.7,3.3-4.8,5.5-8.5,6.1c-1,0.2-2.2,0.2-3.6,0.2c-0.1,0-0.2,0-0.4,0h-0.1l-0.2,0
					c-0.4,0-1,0.1-1.7,0.1c-0.1,0-0.2,0-0.3,0l-0.6,0c-0.4,0-0.7,0-0.9,0c-1.5,0-2.9-0.2-4.2-0.7c-1.7,0.7-3.2,1-3.9,1.1l-0.7,0.1
					c-0.3,0-0.6,0-0.9,0c-2.2,0-4.2-0.6-6.1-1.7c-0.7,0.1-1.5,0-2.2-0.1c0,0-0.1,0-0.1,0l-3.1,0c-1.5-0.1-3.3-0.2-5.1-0.9
					c-3.2,1.2-6.4,1.8-9.3,1.8c-0.2,0-0.3,0-0.5,0l-3.3-0.1c-0.2,0-0.5,0-0.6,0l-0.3,0l-1.6-0.1c-0.3,0-0.6,0-0.9,0
					c-2-0.1-4-0.8-5.7-1.9c-2.1,2.3-5,3.7-8.1,3.9c-1.4,0.1-2.4,0.2-2.9,0.3c-0.9,0.3-2.5,0.9-4.6,0.9c-2.7,0-5.2-0.9-7.3-2.5
					l-1.6,0c-0.5,0-1-0.1-1.6-0.1c-2.2,0.8-4.1,0.8-5.2,0.8h-0.5c-2.7,0.1-5.4-0.5-7.7-1.5c-1.1,0.3-2.2,0.5-3.4,0.5l-7.3,0.1
					c-3.2,0-6.2-1.3-8.3-3.4c-1,0-2-0.1-2.9-0.4c-1.3,1.4-2.8,2.6-4.6,3.5c-3.7,1.8-7.8,1.9-11.7,0.3c-0.5-0.2-0.9-0.4-1.4-0.6
					l-4.4,0.7c-0.5,0.1-0.9,0.1-1.4,0.1c-0.5,0.3-1,0.6-1.5,0.8c-2.9,1.4-5.4,1.4-6.8,1.4l-0.4,0c-0.2,0-0.4,0-0.6,0
					c-3.4,0-6.5-0.9-9.2-2.7c-0.8,0.2-1.7,0.3-2.6,0.4c-1.8,1.2-3.9,1.9-6.1,2.1c-0.2,0-0.5,0-0.8,0c-6.3,0-11.6-4.9-12.1-11.2
					l0-0.3c-0.1-1-0.1-3,0-5.3c0.1-1.1,0.1-3,0.1-3.2v-0.1c0-1.6,0.4-3.2,1-4.6c-0.1-1.5-0.1-3,0.1-4.6l0-0.5c0.2-1.5,0.5-4.2,2-6.9
					c2.4-4.6,7-7.4,12.3-7.6c1.6-0.8,3.5-1.2,5.3-1.2H43c4.1,0,7.7,2.1,9.9,5.3c1.7-1.6,3.9-2.6,6.3-2.9c1.4-0.2,4.1-0.5,7.1-0.5
					c1.7,0,3.3,0.1,4.8,0.3c1.8-1.6,4-2.7,6.4-3l5-0.7c0.7-0.1,1.3-0.1,1.7-0.1c3,0,5.9,1.1,8.1,3.1c0.1,0,0.3,0,0.4,0l7.4-0.1
					c3.1,0,5.9-0.2,6.5-0.3l0.6,0c0.2,0,0.3,0,0.5,0c2.8,0,5.6,1,7.7,2.8c2.1-1.6,4.6-2.4,7.3-2.4h2.6c1.9-1.2,4.1-1.9,6.3-2
					l6.4-0.1c3.8,0,7.2,1.8,9.5,4.6c2.2-1.7,4.9-2.7,8-2.7c0.3,0,0.6,0,0.9,0l0.2,0c0.6,0,1.1,0.1,1.9,0.2c0.3,0,0.8,0.1,1.4,0.1
					c0.6,0.1,1.4,0.2,2.4,0.4c1.8,0.3,3.1,0.6,4.3,0.9l0.4,0.1c1.1,0.3,2.2,0.8,3.3,1.3c0.5-0.2,1-0.4,1.5-0.5l1.2-0.3
					c1.4-0.4,3-0.7,4.9-1c0.4-0.1,0.6-0.1,0.7-0.1l0.2,0c0.3-0.1,0.6-0.1,0.9-0.1c0.2,0,0.5,0,0.7,0l0.5,0c1,0,2,0.2,2.9,0.5
					c1.2-0.5,2.2-0.7,2.9-0.8l0.1,0c1.1-0.2,2.4-0.3,4.1-0.3c1,0,1.3,0,1.3,0c0.9-0.1,1.7-0.2,2.6-0.2c0.5-0.2,1-0.4,1.6-0.5
					l0.2-0.1l1.5-0.2c1.4-0.2,3.1-0.3,5.1-0.3l1.6-0.1c1.6-0.1,3,0,4.4,0.4h0.2l1.4,0.5C215.2,20.6,218.1,24.8,218.1,29.6z"/>
			</g>
		</g>
	</g>
	<g>
		<g>
			<g>
				<path fill="#F9A83A" d="M211.4,29.6c0,1.3-0.5,2.6-1.5,3.6l-0.4,0.5c-0.7,0.8-1.7,1.2-2.8,1.2c-0.1,0-0.1,0-0.2,0l-0.3,0
					c-0.6,1.4-1.2,2.5-1.8,3.5c-0.4,0.8-0.9,1.6-1.2,2.5c0,0.1-0.1,0.2-0.1,0.3c0,0-0.1,0.1-0.1,0.2c0,0,0,0,0,0
					c0.1,0.7,0.2,1.2,0.2,1.4c0,0.1,0,0.1,0,0.2c0,0.6,0.1,1.2,0.1,1.8c1.4,0.6,2.4,1.7,2.9,3.1c0,0.1,0.1,0.2,0.1,0.3
					c0.1,0.5,0.1,0.9,0.1,1.4c-0.1,0.5-0.2,1-0.4,1.7c-0.1,0.2-0.2,0.4-0.3,0.6c-0.7,1.4-2,2.3-3.6,2.5c-0.5,0.1-0.9,0.1-1.5,0.1
					c-0.3,0-0.6,0-0.9,0c-0.3,0-0.5,0-0.7,0c-0.1,0-0.2,0-0.3,0l-0.2,0c-0.4,0-1,0.1-1.8,0.1c0,0-0.1,0-0.1,0c-0.1,0-0.2,0-0.3,0
					h-0.1l-0.2,0c-0.2,0-0.4,0-0.6,0c-1.8,0-3.4-0.7-4.4-2h0c-0.4,0.3-0.8,0.6-1.2,1c0,0-0.1,0.1-0.1,0.1c-1.2,1-2.5,1.2-3.5,1.4
					c0,0-0.1,0-0.2,0c-0.1,0-0.2,0-0.4,0c-1,0-2-0.3-2.9-1c-0.5-0.4-1-0.9-1.3-1.4c-0.6,0.4-1.4,0.6-2.1,0.6l-0.2,0
					c-0.1,0-0.2,0-0.3,0c-0.2,0-0.5,0-0.7-0.1c-0.2,0-0.4,0-0.6,0c-0.2,0-1.2,0-3,0h-0.1c-1.6-0.1-2.7-0.3-3.6-0.7c0,0,0,0-0.1,0
					c-0.5-0.2-0.9-0.6-1.2-0.9c-0.5,0.3-1.1,0.5-1.7,0.8c-2.9,1.2-5.6,1.8-8.1,1.8c-0.2,0-0.4,0-0.6,0c-0.4,0-1.1,0-2,0l-1.1,0
					c-0.3,0-0.5,0-0.5,0l-1.8-0.1h-0.2c-0.1,0-0.3,0-0.4,0c-1.1-0.1-2-0.5-2.9-1.1c0,0,0,0-0.1,0c-1.1-0.9-1.8-2.2-1.9-3.6v0
					c-0.1-0.8,0.1-1.6,0.5-2.3l0-0.1c0,0,0,0,0,0c0.9-1.5,2.4-2.5,4.2-2.7V44c0-1.7,0-4.5,0.1-8.4c-0.3-0.1-0.5-0.2-0.7-0.3
					c-1.9-1-2.9-2.8-2.8-4.7c0-0.7,0.3-1.4,0.6-2.1c1-1.8,2.8-2.9,5.1-2.9c0.2,0,0.3,0,0.5,0c0.4,0,0.8,0.1,1.4,0.2c0,0,0.1,0,0.2,0
					c0,0,0.1,0,0.1,0h0c0.3,0,0.8,0,3.4,0.4c1.5,0.2,2.7,0.5,3.6,0.7c0,0,0.1,0,0.1,0c2,0.6,3.9,1.6,5.5,3.1
					c0.1-0.1,0.2-0.3,0.3-0.4l0,0c0.7-0.8,1.7-1.4,2.7-1.7l0.1,0c0.2-0.1,0.6-0.2,1.1-0.3c1.2-0.3,2.5-0.6,4-0.8
					c0.6-0.1,0.9-0.1,1-0.1c0.3,0,0.3,0,0.4,0c0.1,0,0.2,0,0.3,0c0.1,0,0.1,0,0.2,0c1.4,0.1,2.7,0.7,3.6,1.7
					c0.4-0.5,0.8-0.9,1.3-1.2c0.8-0.5,1.6-0.7,2.4-0.8c0.7-0.1,1.7-0.2,3-0.2c1.4,0,1.9,0,2-0.1c0.7-0.1,1.3-0.1,1.9-0.1
					c0.5,0,1,0,1.4,0.1c0,0,0.1,0,0.1,0c0.7-0.5,1.4-0.8,2.2-1c0,0,0,0,0.1,0c1.3-0.2,2.9-0.3,4.9-0.3l1.4-0.1h0.1
					c0.2,0,0.4,0,0.7,0c0.9,0,1.7,0.1,2.5,0.4c0,0,0,0,0,0C210.1,25.7,211.4,27.5,211.4,29.6z"/>
			</g>
		</g>
		<path fill="#F9A83A" d="M34.1,56.6c-2.8,0-5.2-2.2-5.4-5l0-0.1c0-0.9-0.1-2.6,0-4.6c0.1-1.3,0.1-3.5,0.1-3.5l0,0
			c0-1.3,0.5-2.5,1.4-3.5c-0.4-1.4-0.5-3.1-0.3-5.1l0-0.3c0.2-1.2,0.4-2.9,1.3-4.6c1.4-2.6,3.8-4,6.8-4c0.2,0,0.3,0,0.5,0
			c0.3,0,0.6,0,0.9,0.1c0.9-0.8,2.2-1.3,3.6-1.3l0.1,0c2.9,0,5.3,2.5,5.3,5.4v0.1c0,0.1-0.3,7.6-0.4,8.1l0,0.1
			c-0.1,0.4-0.2,0.8-0.3,1.1c1.3,1.5,2,3.4,2,5.6c0,2.7-1.2,5.3-3.4,7.2c-1.9,1.6-4.3,2.5-6.7,2.5c-0.4,0-0.8,0-1.2-0.1
			c-0.1,0.1-0.2,0.2-0.3,0.3c-1,1.1-2.3,1.7-3.7,1.8C34.3,56.6,34.2,56.6,34.1,56.6"/>
		<path fill="#F9A83A" d="M74.8,55.5c-1,0-2.1-0.2-3.1-0.6c-1-0.4-1.7-0.9-2.3-1.5c-0.4,0.2-0.8,0.3-1.3,0.3l-5.7,0.8
			c-0.3,0-0.5,0.1-0.8,0.1c-2.7,0-4.9-2-5.3-4.6c-0.2-1.4,0.2-2.8,1-4c0.4-0.6,1-1.1,1.6-1.4v-0.8c-1.1-1-1.8-2.4-1.8-4
			c0-1.2,0.4-2.2,1-3.1c-1.3-0.8-2.2-2.2-2.4-3.7c-0.2-1.4,0.1-2.8,1-4c0.9-1.2,2.1-1.9,3.5-2.1c1.2-0.2,3.6-0.5,6.1-0.5
			c5.7,0,9.3,1.4,11,4.4c0.9,1.6,2,4.7-0.8,8.7c0.3,0.8,0.5,1.8,0.6,2.8h0.1c0.5,0,1.1,0.1,1.6,0.2c2.8,0.9,4.4,3.9,3.6,6.7
			c-0.8,2.8-2.2,4.5-4.4,5.5C76.9,55.2,75.9,55.5,74.8,55.5"/>
		<path fill="#F9A83A" d="M114.6,55.2c-6.1,0-9.6-4.6-9.9-9.1h0c0-0.3,0-0.9-0.1-2.4v-0.1c0-2.8,0.1-3.3,0.1-3.5
			c0.3-4.3,1.8-7.3,4.4-9c1.3-0.8,2.7-1.2,4.2-1.2c0.5,0,1,0.1,1.5,0.1c1-1.1,2.4-1.8,4-1.8c3,0,5.4,2.4,5.4,5.4v5.1
			c0,0.6-0.1,1.2-0.3,1.8c0.7,0.9,1.2,2,1.3,3.2c0,0.4,0,0.7,0,0.9c0,1.4,0,1.4-0.1,1.6l0,0.1c-0.1,0.9-0.4,2.6-1.2,3.9
			c-0.5,0.9-1,1.5-1.5,2c-1,1.1-2.1,1.7-3,2.1c-1.6,0.8-3,0.8-4,0.8l-0.6,0C114.8,55.2,114.7,55.2,114.6,55.2"/>
		<path fill="#F9A83A" d="M131.4,57.1c-1.3,0-2.5-0.5-3.4-1.3c-0.4-0.3-0.7-0.7-0.9-1.1l-4.4-0.1c-3-0.1-5.3-2.5-5.3-5.4
			c0-2.1,1.3-4,3.2-4.8l0-8.2c-1.8-0.9-3.1-2.7-3.1-4.9c0-3,2.4-5.4,5.4-5.4h5c1-1.2,2.4-1.9,4.1-2l6.2-0.1c2.9,0,5.3,2.4,5.4,5.3
			c0,2.1-1.2,4-3,4.9c0,5.8,0.1,9.5,0.1,11.9c1.6,0.8,2.8,2.5,2.9,4.4c0.2,3-2.1,5.5-5,5.7c-2.4,0.2-4,0.4-4.4,0.6l-0.3,0.1
			C133.2,56.8,132.4,57.1,131.4,57.1"/>
		<path fill="#F9A83A" d="M88.4,51c-1.2,0-2.3-0.4-3.2-1.1c-0.2-0.1-0.4-0.3-0.6-0.5c-0.7,0.3-1.4,0.5-2.2,0.5l-0.2,0l-5.9-0.3
			c-3-0.1-5.2-2.7-5.1-5.6c0.1-2.9,2.5-5.1,5.4-5.1h0.1c0.3-1.4,0.9-4.7,1-4.8c-1.9-0.6-3.4-2.3-3.7-4.4c-0.4-2.9,1.7-5.6,4.6-6
			l5-0.7c0.2,0,0.5,0,0.7,0c1.5,0,2.9,0.6,3.9,1.7c0.4,0.4,0.9,1.2,1.2,1.8l4.4,10.7l0.1,0.2h0c2.3,0,4.3,1.4,5.1,3.6
			c1,2.8-0.5,5.9-3.2,6.9c-1.8,0.6-2.9,1.2-3.3,1.5C91.4,50.3,89.9,51,88.4,51L88.4,51z"/>
		<path fill="#F9A83A" d="M96.7,54.3c-2.9,0-5.3-2.4-5.4-5.3c0-2.4,1.5-4.4,3.6-5.2l0-1.6c-0.2,0-0.3,0.1-0.5,0.1
			c-0.3,0-0.5,0.1-0.8,0.1c-2.7,0-4.9-1.9-5.3-4.6l-0.9-5.8c-0.2-1.5,0.2-3.1,1.2-4.3c1-1.2,2.5-1.9,4-1.9l7.5-0.1
			c3.6-0.1,6.9-0.3,7.1-0.3l0.1,0c0.1,0,0.2,0,0.3,0c1.4,0,2.8,0.6,3.8,1.6c1.1,1.1,1.6,2.6,1.5,4.2c-0.1,1.3-0.1,3.5-0.1,4
			c0.1,2.2-1.1,4.1-3.1,5c-0.7,0.3-1.5,0.5-2.3,0.5c-0.6,0-1.3-0.1-1.8-0.3l0,3.4c2,0.7,3.5,2.7,3.5,5c0,1.4-0.5,2.8-1.5,3.8
			c-1,1-2.4,1.6-3.8,1.6L96.7,54.3z"/>
		<path fill="#F9A83A" d="M52.6,56.7c-6,0-9.5-4.5-9.9-9c0-0.1,0-0.3,0-0.3l0-2.2l0-3.3c0-0.1,0-0.2,0-0.3c0.3-4.3,1.8-7.3,4.5-9
			c1.3-0.8,2.7-1.2,4.2-1.2c0.5,0,1,0,1.5,0.1c1-1.1,2.4-1.8,4-1.8c3,0,5.4,2.4,5.4,5.4v5.1c0,0.6-0.1,1.1-0.2,1.6
			c0.7,0.9,1.2,2,1.2,3.2l0,0.6l0,0.2c0,0,0,1.4-0.1,2h0c-0.2,1.1-0.5,2.7-1.2,3.9c-0.5,0.9-1,1.5-1.5,2c-1,1.1-2.1,1.7-3,2.2
			c-1.6,0.7-3,0.8-4,0.8l-0.6,0C52.9,56.7,52.7,56.7,52.6,56.7L52.6,56.7z"/>
	</g>
	<polygon fill="#F9A83A" points="84.6,32.6 83.2,39.6 87.2,39 	"/>
	<path fill="#FFFFFF" d="M38.1,39.4c-1.4-0.2-2.1-1.1-1.7-3.9l0-0.3c0.3-2.4,0.6-3,1.7-2.9c0.3,0,0.7,0.2,1.1,0.6
		c0.4,0.4,1.2,1,1.6,2.1c0.3,0.8,0.4,1.3,0.5,1.9l0.1,0.7v0c0.1,0.5,0.5,0.9,1,0.9c0.6,0.1,1.3-0.3,1.4-0.9c0-0.1,0.3-7.4,0.3-7.6
		c0-0.6-0.5-1.2-1.2-1.2c-0.7,0-1.2,0.5-1.2,1.2c0,0,0,1,0,2.1c-0.9-1-2.1-1.9-3.4-2c-3.6-0.2-3.9,3.1-4.2,5l0,0.3
		c-0.5,3.7,0.8,6.1,3.7,6.5c3.2,0.5,5.3,1.2,5.3,3.2c0,0.8-0.4,1.5-1.1,2.1c-0.8,0.7-2,1-3,0.9c-0.3-0.1-0.6-0.1-0.9-0.2
		c-0.4-0.2-1.5-0.9-2-1.6c-0.4-0.6-0.6-1.6-0.7-2.2c0-0.3,0-0.5,0-0.5c0-0.7-0.5-1.2-1.2-1.2c-0.7,0-1.2,0.5-1.2,1.2
		c0,0,0,2.3-0.1,3.7c-0.1,2.2,0,4.1,0,4.2c0,0.7,0.6,1.1,1.3,1.1c0.6,0,1.1-0.6,1.1-1.2c0,0-0.1-0.9,0-2.2c0.9,0.6,2,1.1,3.4,1.3
		c1.8,0.3,3.6-0.2,4.9-1.4c1.2-1.1,1.9-2.5,1.9-4C45.4,40.5,40.4,39.8,38.1,39.4"/>
	<path fill="#FFFFFF" d="M70.8,36c-0.1,0.1-0.4,0.4-0.7,0.6c-0.3,0.2-0.7,0.3-1.1,0.4l-0.6,0.2c-0.8,0.3-1.9,0.6-3.1,0.8l0-5.4
		c3.1-0.1,5.8,0.3,6.4,1.2c0,0.1,0.1,0.2,0.1,0.3C71.8,34.6,71.4,35.2,70.8,36 M77.5,46.5c-0.6-0.2-1.3,0.2-1.5,0.8
		c-0.4,1.4-0.8,1.5-1,1.6c-0.2,0.1-0.6,0.1-1.1-0.1c-0.1,0-0.3-0.3-0.4-0.6c-0.2-0.4-0.4-2-0.4-3c-0.1-3.5-0.7-5.4-1.7-6.4
		c0.7-0.4,1.1-1,1.2-1.1l0,0c1.4-1.9,1.8-3.5,1-4.8c-1.9-3.3-10.4-2.3-12.9-1.9c-0.7,0.1-1.1,0.7-1,1.3c0.1,0.6,0.7,1.1,1.3,1
		c0.6-0.1,1.2-0.2,1.8-0.2l0,5.5c-0.2,0-0.4,0-0.6,0c-0.7,0-1.2,0.5-1.2,1.2c0,0.6,0.5,1.2,1.2,1.2c0.2,0,0.4,0,0.6,0l0,6.9L61.4,48
		c-0.7,0.1-1.1,0.7-1,1.3c0.1,0.7,0.7,1.1,1.3,1l5.7-0.8c0.6-0.1,1.1-0.7,1-1.3c-0.1-0.6-0.7-1.1-1.3-1l-1.7,0.3l0-6.8
		c1.1-0.2,2.2-0.4,3.1-0.7c0,0,0.3,0,0.4,0c0.5,0.1,0.7,0.2,1,0.6c0.4,0.5,0.9,1.8,0.9,4.7c0,0.6,0.2,2.9,0.6,3.9
		c0.1,0.3,0.7,1.4,1.7,1.8c0.7,0.3,1.8,0.6,3,0c1-0.5,1.7-1.3,2.2-3C78.5,47.4,78.2,46.7,77.5,46.5"/>
	<path fill="#FFFFFF" d="M119.9,42.8c-0.6,0-1.2,0.5-1.2,1.2l0,0.4c0,0,0,1,0,1.1c-0.1,0.5-0.2,1.3-0.4,1.5
		c-0.2,0.3-0.4,0.5-0.7,0.9c-0.2,0.2-0.6,0.4-0.9,0.5c-0.3,0.1-0.6,0.1-1.3,0.2l-0.7,0c-3.1,0.1-3.5-2.4-3.5-2.9l0-2l0-3.2
		c0.1-2,0.6-3.4,1.3-3.8c0.6-0.3,1.4-0.2,2.7,0.3c1.6,0.7,2.6,2.4,2.6,2.4c0.3,0.4,0.8,0.7,1.3,0.5c0.5-0.1,0.9-0.6,0.9-1.1v-5.1
		c0-0.7-0.5-1.2-1.2-1.2c-0.7,0-1.2,0.5-1.2,1.2v2.1c-0.5-0.4-1-0.7-1.6-0.9c-0.7-0.3-3-1.3-4.8-0.1c-1.5,0.9-2.3,2.8-2.5,5.7l0,3.3
		l0,2.2c0.1,1.8,1.5,5.3,5.9,5.2l0.7,0c0.8,0,1.5,0,2.3-0.4c0.6-0.3,1.2-0.6,1.7-1.1c0.3-0.4,0.7-0.8,1-1.3c0.5-0.8,0.7-2.2,0.7-2.4
		l0-1.3l0-0.5C121.1,43.3,120.6,42.8,119.9,42.8"/>
	<path fill="#FFFFFF" d="M139.3,50.5c0-0.6-0.6-1.1-1.3-1.1c-0.4,0-1,0.1-1.7,0.1c0-2,0-6.1-0.1-19.2l1.8,0c0.7,0,1.2-0.5,1.2-1.2
		c0-0.6-0.5-1.2-1.2-1.2l-6.1,0.1c-0.7,0-1.2,0.6-1.2,1.2c0,0.6,0.5,1.2,1.2,1.2l2,0c0,2.6,0,5.4,0,8.2l-6.9,1.2l0-7.3h1.9
		c0.6,0,1.2-0.5,1.2-1.2c0-0.7-0.5-1.2-1.2-1.2h-6.2c-0.7,0-1.2,0.5-1.2,1.2c0,0.7,0.5,1.2,1.2,1.2h1.9l0,15.7l-2,0
		c-0.6,0-1.2,0.5-1.2,1.2c0,0.7,0.5,1.2,1.2,1.2l6.4,0.1c0.7,0,1.2-0.5,1.2-1.2c0-0.7-0.5-1.2-1.2-1.2l-2,0l0-6l7-1.2
		c0,4.4,0,7.4,0,9c-1.6,0.3-2.7,0.4-3.3,1.2c-0.4,0.5-0.4,1.2,0.1,1.6c0.5,0.4,1,0.2,1.7-0.1l0,0c0.7-0.3,2.9-0.7,5.7-0.9
		C138.8,51.7,139.3,51.2,139.3,50.5"/>
	<path fill="#FFFFFF" d="M83.2,39.6l1.4-7.1l2.6,6.4L83.2,39.6z M93.5,41.5c-0.4,0.1-1,0.5-2.1,0.9l-1.5-3.7L85.4,28
		c0-0.1-0.3-0.5-0.4-0.6c-0.3-0.3-0.6-0.4-1-0.4L79,27.8c-0.7,0.1-1.1,0.7-1,1.3c0.1,0.6,0.7,1.1,1.3,1c0,0,1.9-0.3,3.4-0.5
		c-0.4,2.2-2.2,10.9-2.7,13.6l-3.4-0.2c-0.6,0-1.2,0.5-1.2,1.1c0,0.7,0.5,1.2,1.1,1.2l5.9,0.3c0.7,0,1.2-0.5,1.2-1.1
		c0-0.7-0.4-1.2-1.2-1.2l0.3-1.8l5.4-0.9l1.2,2.9c-0.9,0.5-1.5,0.8-1.9,1.4c-0.4,0.5-0.3,1.3,0.2,1.6c0.5,0.4,1.3,0.3,1.7-0.2
		c0.5-0.7,2.8-1.8,5-2.5c0.6-0.2,0.9-0.9,0.7-1.5C94.8,41.6,94.1,41.3,93.5,41.5"/>
	<path fill="#FFFFFF" d="M107.6,29.7c0,0-3.5,0.3-7.4,0.3l-7.5,0.1c-0.3,0-0.7,0.2-0.9,0.4c-0.2,0.3-0.3,0.6-0.3,0.9l0.9,5.8
		c0.1,0.6,0.7,1.1,1.3,1c0.6-0.1,1-0.6,1-1.2c0-0.1-0.5-3-0.7-4.6c0.3,0,5-0.1,5-0.1l0,15.4l-2.5,0c-0.7,0-1.2,0.5-1.2,1.2
		c0,0.6,0.5,1.2,1.2,1.2l7.2-0.1c0.6,0,1.2-0.5,1.2-1.2c0-0.7-0.5-1.2-1.2-1.2l-2.3,0l0-15.4c2-0.1,3.8-0.1,5-0.2
		c-0.1,1-0.1,1.7-0.1,2.3c0,1.3,0.1,1.5,0.2,1.7c0.3,0.5,0.9,0.7,1.5,0.4c0.4-0.2,0.7-0.7,0.6-1.2c0,0,0-2.7,0.2-4.3
		c0-0.3-0.1-0.7-0.3-0.9C108.3,29.8,108,29.6,107.6,29.7"/>
	<path fill="#FFFFFF" d="M58,44.1c-0.6,0-1.2,0.5-1.2,1.2l0,0.7c0,0,0,1,0,1.1c-0.1,0.5-0.2,1.3-0.4,1.5c-0.2,0.3-0.4,0.6-0.7,0.9
		c-0.2,0.2-0.6,0.4-0.9,0.6c-0.3,0.1-0.6,0.1-1.3,0.2l-0.7,0c-3.1,0.1-3.5-2.4-3.5-3l0-2l0-3.2c0.2-2,0.6-3.4,1.3-3.8
		c0.6-0.3,1.5-0.3,2.7,0.3c1.6,0.7,2.6,2.4,2.6,2.4c0.3,0.4,0.8,0.7,1.3,0.5c0.5-0.1,0.9-0.6,0.9-1.1v-5.1c0-0.7-0.5-1.2-1.2-1.2
		c-0.7,0-1.2,0.5-1.2,1.2v2.1c-0.5-0.3-1-0.7-1.6-0.9c-0.7-0.3-3-1.3-4.9-0.1C48,37.1,47.2,39,47,41.9l0,0.1l0,3.2v0l0,2.1l0,0.1
		c0.1,1.8,1.5,5.3,5.9,5.2l0.7,0c0.8,0,1.5,0,2.3-0.4c0.6-0.3,1.2-0.6,1.7-1.1c0.3-0.4,0.7-0.8,1-1.3c0.5-0.8,0.7-2.2,0.7-2.4l0-1.4
		l0-0.7C59.1,44.6,58.6,44,58,44.1"/>
	<g>
		<g>
			<path fill="#FFFFFF" d="M172.1,40.1c-0.3-1.3-0.6-2.2-0.9-2.8c-1.8-3.4-4.3-5.6-7.4-6.6c-0.8-0.2-1.8-0.4-3.2-0.7
				c-1.8-0.3-2.7-0.4-2.9-0.4c-0.2,0-0.5,0-0.9-0.1c-0.5-0.1-0.8-0.1-1.1-0.1c-1-0.1-1.6,0.2-2,0.9c-0.1,0.2-0.2,0.3-0.2,0.5
				c0,0.3,0.1,0.7,0.7,1c0.5,0.2,1,0.4,1.6,0.4c0.4,0,0.7,0,1-0.1c0.1,0,0.2,0,0.3,0c0,0.1,0.1,0.3,0.1,0.7
				c-0.1,5.4-0.1,9.1-0.1,11.1l0,2.3c0,0.8,0,1.4-0.1,2c-0.1,0-0.1,0-0.3,0c-0.4,0-1.2-0.1-2.2-0.3c-1.1-0.2-1.9,0.1-2.3,0.8l0,0.1
				l0,0.1c0,0.4,0.2,0.7,0.5,1c0.2,0.2,0.5,0.3,0.7,0.3c0.1,0,0.2,0,0.3,0l2.1,0.1c0,0,0.1,0,0.4,0l1.1,0c0.9,0,1.6,0,2,0
				c2.1,0.1,4.5-0.4,7.1-1.5c1.6-0.6,2.8-1.3,3.6-2.1c1-1,1.7-2.1,1.9-3.3C172.2,42,172.2,40.9,172.1,40.1z M169.6,42.2
				c-0.1,0.9-0.4,1.8-0.9,2.5c-0.4,0.7-0.5,0.8-0.5,0.8c-1.2,1-2.6,1.7-4.2,2.3c-1.6,0.5-2.9,0.7-4.1,0.6c-0.1-1-0.1-1.9-0.1-2.6
				l-0.1-1.2c0-2.7,0-6.8,0.2-12.3c1.7,0.2,3.3,0.7,4.6,1.5c1,0.7,1.7,1.1,2,1.4C168.7,37.6,169.8,40,169.6,42.2z"/>
		</g>
		<g>
			<path fill="#FFFFFF" d="M192.6,45.7c-0.3-0.2-0.6-0.3-0.9-0.3c-0.3,0-0.8,0.2-1.4,0.7c-0.5,0.3-0.9,0.6-1.3,0.6
				c-1.1-2.2-1.8-3.7-2.3-4.8c-1.3-2.6-2.3-4.5-3-5.8c-0.3-0.5-0.5-0.9-0.6-1.2c-0.2-0.4-0.4-0.7-0.5-0.9c-0.1-0.2-0.3-0.7-0.6-1.5
				c-0.2-0.7-0.5-1.2-0.7-1.5c-0.2-0.3-0.6-0.5-1.1-0.6c0,0-0.1,0-1,0.2c-1.4,0.2-2.6,0.4-3.6,0.7c-0.6,0.2-1,0.3-1.2,0.3
				c-0.3,0.1-0.6,0.2-0.8,0.5c-0.2,0.3-0.3,0.6-0.2,1l0,0l0,0c0.4,0.3,0.6,0.4,0.9,0.4c0.4,0,1.1-0.2,1.9-0.5
				c0.8-0.3,1.5-0.5,1.9-0.5c0.2,0,0.3,0,0.5,0c-0.4,4.3-0.9,8-1.4,10.8c-0.2,1.7-0.3,3-0.4,4c-2,0-2.4,0-2.6,0c-0.5-0.1-1,0-1.3,0
				c-0.6,0.2-0.9,0.6-0.9,1.2c0,0.3,0.2,0.5,0.5,0.7c0.3,0.2,1,0.3,2,0.3c1.9,0,3,0,3.2,0c0.5,0,0.9,0.1,1.1,0.1l0,0l0.2,0
				c0.4,0,0.7-0.2,1-0.5c0.3-0.3,0.4-0.6,0.4-1c0-0.2-0.1-0.3-0.2-0.4c-0.1-0.1-0.3-0.2-0.6-0.3c-0.2,0-0.2-0.1-0.3-0.1
				c0-0.1,0-0.2,0.1-0.2l0-0.1c0-0.3,0-0.6,0.1-0.7c0,0,0-0.1,0.1-0.1c2.5-1,4.5-1.6,5.7-1.7c1,2.7,1.3,3.5,1.4,3.7
				c-0.4,0.3-0.8,0.6-1.2,0.9c-0.7,0.5-0.9,1-0.9,1.3c0,0.3,0.2,0.5,0.4,0.7c0.2,0.2,0.5,0.3,0.7,0.2c0.7-0.1,1.2-0.2,1.4-0.5
				c1.3-1.2,2.8-2.2,4.6-3.1c0.5-0.2,0.9-0.5,1-0.7c0.1-0.2,0.1-0.4,0.1-0.8C192.8,46,192.8,45.8,192.6,45.7z M184.4,42.6
				C184.3,42.6,184.3,42.6,184.4,42.6c-1.2,0.3-2.7,0.7-4.6,1.2l0.9-8c1,1.9,1.7,3,1.9,3.5C183.3,40.7,183.9,41.8,184.4,42.6z"/>
		</g>
		<g>
			<path fill="#FFFFFF" d="M207.5,29.6c0,0.3-0.1,0.7-0.4,1l-0.4,0.4l-1.4-0.1c-0.1,0-1.1,0-1.5,0.1c-0.1,0-0.2,0.2-0.3,0.4
				c-0.9,2.1-1.7,3.8-2.4,5.1c-0.6,1-1,2-1.4,2.9c-0.2,0.4-0.4,0.9-0.6,1.5c0,0.1,0,0.4,0.2,1c0.1,0.7,0.1,1.1,0.2,1.3
				c0.1,1,0.1,2,0.1,2.8c0,0.6,0,1.3,0,2c0,0.1,0,0.1,0.1,0.1c0.3,0,0.9,0,1.6,0.1c0.7,0.1,1.1,0.4,1.3,0.9l0,0l0,0
				c0,0.2-0.1,0.6-0.2,1c-0.2,0.3-0.4,0.5-0.8,0.5c-0.4,0.1-0.9,0.1-1.5,0c-0.7,0-1.2,0-1.5,0c-0.4,0-1.1,0.1-2,0.1
				c-0.1,0-0.2,0-0.5,0c-0.3,0-0.5,0-0.7,0c-0.8,0-1.3-0.3-1.6-0.8c-0.1-0.1-0.1-0.3,0-0.5c0.2-0.8,1-1.2,2.3-1.2h0.4
				c0.2,0,0.3,0,0.4,0c0,0,0.1-0.1,0.1-0.4c0-0.2,0-0.5,0-0.8c0-0.5,0-0.7,0-0.8s0-0.2,0-0.5c0-0.3-0.1-0.5-0.1-0.6v-0.9
				c-0.1-1.4-0.3-2.6-0.5-3.5c-0.1,0-0.2-0.1-0.3-0.2c-0.6-0.5-1-0.9-1.3-1.4c-0.7-1-1.5-2.1-2.3-3.2c-0.9-1.3-1.6-2.4-1.9-3.3
				c-0.2,0-0.4,0-0.8,0.1c-0.5,0.1-0.9,0.1-1.1,0.1c-0.2,0-0.4,0-0.6-0.1c-0.8-0.3-1.3-0.7-1.3-1.2c-0.1-0.6,0.2-1,0.7-1.3
				c0.1-0.1,0.3-0.1,1-0.3c0.5-0.1,1.3-0.1,2.4-0.1c1.1,0,2,0,2.5-0.1c0.9-0.1,1.7-0.1,2.3,0c0.4,0.1,0.7,0.3,0.7,0.7
				c0.1,0.5,0,1.2-1.1,1.5c-0.3,0.1-0.9,0.2-1.9,0.2c0,0,0,0.1,0,0.1c0.5,1,0.9,1.8,1.3,2.3c0.3,0.4,0.8,1,1.5,1.9
				c0.3,0.4,0.7,0.9,1.2,1.5c0.3-0.4,0.6-0.9,0.9-1.6c0.5-1,0.8-1.7,1-2c0.4-0.7,0.9-1.8,1.6-3.3c-1.3,0.1-2,0.1-2.4-0.1
				c-0.4-0.2-0.5-0.4-0.5-0.8c0-0.3,0.1-0.6,0.3-0.9c0.2-0.3,0.5-0.5,0.7-0.5c1.1-0.2,2.7-0.3,4.6-0.3l1.5-0.1c0.6,0,1.2,0,1.6,0.2
				C207.3,28.8,207.5,29.1,207.5,29.6z"/>
		</g>
	</g>
</g>
</svg>
